<?xml version="1.0" encoding="UTF-8"?>
<!DOCTYPE svg PUBLIC "-//W3C//DTD SVG 1.1//EN" "http://www.w3.org/Graphics/SVG/1.1/DTD/svg11.dtd">
<svg xmlns="http://www.w3.org/2000/svg" version="1.1" width="910px" height="910px" style="shape-rendering:geometricPrecision; text-rendering:geometricPrecision; image-rendering:optimizeQuality; fill-rule:evenodd; clip-rule:evenodd" xmlns:xlink="http://www.w3.org/1999/xlink">
<g><path style="opacity:1" fill="#fdfdfd" d="M -0.5,-0.5 C 302.833,-0.5 606.167,-0.5 909.5,-0.5C 909.5,302.833 909.5,606.167 909.5,909.5C 606.167,909.5 302.833,909.5 -0.5,909.5C -0.5,606.167 -0.5,302.833 -0.5,-0.5 Z"/></g>
<g><path style="opacity:1" fill="#080808" d="M 499.5,198.5 C 514.041,196.061 525.541,200.728 534,212.5C 535.844,215.533 536.844,218.866 537,222.5C 545.298,212.717 555.131,210.884 566.5,217C 575.164,223.032 577.83,231.032 574.5,241C 530.168,241.5 485.835,241.667 441.5,241.5C 440.14,222.696 448.806,213.53 467.5,214C 472.668,214.834 476.835,217.334 480,221.5C 481.785,216.596 484.119,211.929 487,207.5C 490.79,203.862 494.957,200.862 499.5,198.5 Z"/></g>
<g><path style="opacity:1" fill="#030303" d="M 352.5,231.5 C 366.171,231.333 379.837,231.5 393.5,232C 395.667,233.5 397.5,235.333 399,237.5C 399.667,241.833 399.667,246.167 399,250.5C 390.452,254.858 381.952,259.358 373.5,264C 350,269.833 341.167,261 347,237.5C 348.36,234.977 350.193,232.977 352.5,231.5 Z"/></g>
<g><path style="opacity:1" fill="#030303" d="M 370.5,476.5 C 369.501,418.002 369.168,359.336 369.5,300.5C 373.593,297.276 377.926,294.276 382.5,291.5C 383.33,285.528 383.83,279.528 384,273.5C 389.088,270.706 394.255,268.039 399.5,265.5C 400.329,270.467 400.829,275.467 401,280.5C 405.748,278.211 410.248,275.545 414.5,272.5C 415.167,287.833 415.833,303.167 416.5,318.5C 420.251,317.027 423.917,315.36 427.5,313.5C 428.167,298.167 428.833,282.833 429.5,267.5C 434.692,264.772 440.025,262.439 445.5,260.5C 446.49,266.31 446.823,272.31 446.5,278.5C 451.363,278.819 456.03,278.486 460.5,277.5C 461.167,271.833 461.833,266.167 462.5,260.5C 467.807,262.819 473.141,265.152 478.5,267.5C 479.499,283.152 479.833,298.819 479.5,314.5C 483.748,316.125 488.081,317.458 492.5,318.5C 492.167,303.485 492.501,288.485 493.5,273.5C 497.674,276.088 502.007,278.421 506.5,280.5C 507.497,272.862 507.831,265.196 507.5,257.5C 513.135,259.733 518.635,262.4 524,265.5C 524.333,274.5 524.667,283.5 525,292.5C 529.333,295.167 533.667,297.833 538,300.5C 538.667,316.5 538.667,332.5 538,348.5C 529.657,361.186 520.824,373.519 511.5,385.5C 500.5,377.333 489.5,369.167 478.5,361C 465.658,354.442 452.324,352.775 438.5,356C 424.705,362.144 413.872,371.644 406,384.5C 405.123,389.544 406.123,394.211 409,398.5C 412.581,402.752 416.748,406.252 421.5,409C 435.403,413.745 449.07,419.079 462.5,425C 470.054,432.73 468.721,438.73 458.5,443C 428.631,452.899 399.298,464.065 370.5,476.5 Z"/></g>
<g><path style="opacity:1" fill="#040404" d="M 606.5,285.5 C 596.895,286.808 587.061,287.475 577,287.5C 567.327,287.5 557.827,287.166 548.5,286.5C 547.598,274.238 553.264,269.072 565.5,271C 568.562,272.061 571.062,273.894 573,276.5C 578.678,260.138 588.511,257.138 602.5,267.5C 606.949,272.839 608.283,278.839 606.5,285.5 Z"/></g>
<g><path style="opacity:1" fill="#8a8a8a" d="M 445.5,260.5 C 445.56,259.957 445.893,259.624 446.5,259.5C 447.496,265.463 447.829,271.463 447.5,277.5C 451.833,277.5 456.167,277.5 460.5,277.5C 456.03,278.486 451.363,278.819 446.5,278.5C 446.823,272.31 446.49,266.31 445.5,260.5 Z"/></g>
<g><path style="opacity:1" fill="#7b7b7b" d="M 462.5,260.5 C 461.833,266.167 461.167,271.833 460.5,277.5C 460.171,271.463 460.504,265.463 461.5,259.5C 462.107,259.624 462.44,259.957 462.5,260.5 Z"/></g>
<g><path style="opacity:1" fill="#acacac" d="M 606.5,285.5 C 606.5,286.5 606.5,287.5 606.5,288.5C 586.822,288.833 567.155,288.5 547.5,287.5C 547.624,286.893 547.957,286.56 548.5,286.5C 557.827,287.166 567.327,287.5 577,287.5C 587.061,287.475 596.895,286.808 606.5,285.5 Z"/></g>
<g><path style="opacity:1" fill="#070707" d="M 349.5,364.5 C 344.456,364.173 339.456,364.506 334.5,365.5C 334.624,366.107 334.957,366.44 335.5,366.5C 342.103,386.717 348.436,407.05 354.5,427.5C 354.594,429.912 353.594,431.745 351.5,433C 345.141,433.169 338.807,433.669 332.5,434.5C 340.924,452.197 345.257,470.864 345.5,490.5C 317.167,490.5 288.833,490.5 260.5,490.5C 258.174,475.651 263.84,465.151 277.5,459C 278.944,458.219 280.277,458.386 281.5,459.5C 289.099,474.963 301.433,480.797 318.5,477C 320.167,476.167 321.833,475.333 323.5,474.5C 324.757,460.776 326.424,447.11 328.5,433.5C 321.825,433.666 315.158,433.5 308.5,433C 306.703,431.406 305.703,429.406 305.5,427C 311.747,406.76 318.081,386.593 324.5,366.5C 325.043,366.44 325.376,366.107 325.5,365.5C 321.217,364.508 316.884,364.174 312.5,364.5C 309.302,363.146 308.136,360.813 309,357.5C 315.892,335.919 323.392,314.585 331.5,293.5C 339.154,314.628 346.321,335.961 353,357.5C 353.793,360.86 352.626,363.194 349.5,364.5 Z"/></g>
<g><path style="opacity:1" fill="#f8f8f8" d="M 396.5,305.5 C 397.491,312.313 397.825,319.313 397.5,326.5C 394.451,328.863 391.118,330.863 387.5,332.5C 386.509,326.021 386.176,319.354 386.5,312.5C 389.833,310.167 393.167,307.833 396.5,305.5 Z"/></g>
<g><path style="opacity:1" fill="#f8f8f8" d="M 520.5,313.5 C 520.823,320.022 520.49,326.355 519.5,332.5C 516.281,330.973 513.115,329.307 510,327.5C 509.169,320.476 509.336,313.476 510.5,306.5C 513.9,308.856 517.233,311.189 520.5,313.5 Z"/></g>
<g><path style="opacity:1" fill="#a7a7a7" d="M 396.5,305.5 C 396.56,304.957 396.893,304.624 397.5,304.5C 398.819,311.99 398.819,319.323 397.5,326.5C 397.825,319.313 397.491,312.313 396.5,305.5 Z"/></g>
<g><path style="opacity:1" fill="#5c5c5c" d="M 386.5,312.5 C 386.176,319.354 386.509,326.021 387.5,332.5C 387.44,333.043 387.107,333.376 386.5,333.5C 385.181,326.344 385.181,319.344 386.5,312.5 Z"/></g>
<g><path style="opacity:1" fill="#060606" d="M 583.5,337.5 C 573.833,337.5 564.167,337.5 554.5,337.5C 554.5,335.167 554.5,332.833 554.5,330.5C 559.54,320.249 567.206,317.749 577.5,323C 582.123,326.746 584.123,331.579 583.5,337.5 Z"/></g>
<g><path style="opacity:1" fill="#808080" d="M 520.5,313.5 C 521.818,320.011 521.818,326.678 520.5,333.5C 519.893,333.376 519.56,333.043 519.5,332.5C 520.49,326.355 520.823,320.022 520.5,313.5 Z"/></g>
<g><path style="opacity:1" fill="#5d5d5d" d="M 554.5,330.5 C 554.5,332.833 554.5,335.167 554.5,337.5C 564.167,337.5 573.833,337.5 583.5,337.5C 573.681,338.494 563.681,338.827 553.5,338.5C 553.194,335.615 553.527,332.948 554.5,330.5 Z"/></g>
<g><path style="opacity:1" fill="#030303" d="M 549.5,356.5 C 569.66,355.264 586.16,362.264 599,377.5C 606.963,392.894 609.629,409.228 607,426.5C 602.265,453.05 592.265,477.383 577,499.5C 575.938,500.899 574.605,501.899 573,502.5C 557.012,490.842 550.678,475.176 554,455.5C 557.327,440.466 554.327,426.8 545,414.5C 537.887,407.708 530.72,401.041 523.5,394.5C 532.608,382.072 541.275,369.405 549.5,356.5 Z"/></g>
<g><path style="opacity:1" fill="#828282" d="M 312.5,364.5 C 316.884,364.174 321.217,364.508 325.5,365.5C 325.376,366.107 325.043,366.44 324.5,366.5C 320.5,365.833 316.5,365.167 312.5,364.5 Z"/></g>
<g><path style="opacity:1" fill="#555555" d="M 349.5,364.5 C 344.833,365.167 340.167,365.833 335.5,366.5C 334.957,366.44 334.624,366.107 334.5,365.5C 339.456,364.506 344.456,364.173 349.5,364.5 Z"/></g>
<g><path style="opacity:1" fill="#050505" d="M 444.5,367.5 C 453.855,367.622 462.855,369.455 471.5,373C 492.873,388.7 513.373,405.533 533,423.5C 536.481,427.931 538.814,432.931 540,438.5C 539.831,448.36 538.998,458.193 537.5,468C 538.012,482.208 542.845,494.708 552,505.5C 565.595,520.2 581.095,532.366 598.5,542C 616.476,551.155 634.81,559.489 653.5,567C 654.337,568.011 654.67,569.178 654.5,570.5C 586.167,570.5 517.833,570.5 449.5,570.5C 441.657,538.87 449.657,512.036 473.5,490C 485.82,481.915 497.32,472.749 508,462.5C 511.053,459.113 513.72,455.447 516,451.5C 521.166,437.328 516.666,427.495 502.5,422C 476.694,413.398 451.027,404.398 425.5,395C 421.467,391.832 420.633,387.999 423,383.5C 429.788,377.537 436.955,372.203 444.5,367.5 Z"/></g>
<g><path style="opacity:1" fill="#494949" d="M 369.5,300.5 C 369.168,359.336 369.501,418.002 370.5,476.5C 370.44,477.043 370.107,477.376 369.5,477.5C 368.169,418.335 368.169,359.335 369.5,300.5 Z"/></g>
<g><path style="opacity:1" fill="#050505" d="M 487.5,423.5 C 494.371,426.201 499.538,430.868 503,437.5C 503.805,441.909 502.805,445.909 500,449.5C 495.167,455.667 489.667,461.167 483.5,466C 463.856,478.307 446.689,493.474 432,511.5C 418.503,528.822 411.67,548.489 411.5,570.5C 361.5,570.5 311.5,570.5 261.5,570.5C 261.33,569.178 261.663,568.011 262.5,567C 323.783,519.017 391.783,483.017 466.5,459C 476.947,456.041 484.78,449.874 490,440.5C 491.195,434.43 490.362,428.764 487.5,423.5 Z"/></g>
<g><path style="opacity:1" fill="#0c0c0c" d="M 347.5,611.5 C 354.721,610.886 361.721,611.719 368.5,614C 369.444,616.719 369.777,619.552 369.5,622.5C 363.294,620.83 356.961,620.33 350.5,621C 346.5,624.333 346.5,627.667 350.5,631C 355.167,632.667 359.833,634.333 364.5,636C 372.041,642.095 373.541,649.595 369,658.5C 359.074,665.615 348.741,666.281 338,660.5C 337.231,657.901 337.398,655.401 338.5,653C 341.455,653.419 344.455,654.086 347.5,655C 350.833,655.667 354.167,655.667 357.5,655C 361.925,652.451 362.592,649.118 359.5,645C 353.933,643.217 348.599,640.883 343.5,638C 337.826,633.515 335.993,627.681 338,620.5C 340.406,616.592 343.572,613.592 347.5,611.5 Z"/></g>
<g><path style="opacity:1" fill="#0a0a0a" d="M 553.5,611.5 C 581.91,610.074 592.41,623.074 585,650.5C 581.47,657.19 575.97,661.357 568.5,663C 548.868,666.032 537.868,657.699 535.5,638C 536.262,625.437 542.262,616.603 553.5,611.5 Z"/></g>
<g><path style="opacity:1" fill="#0b0b0b" d="M 659.5,611.5 C 664.844,611.334 670.177,611.501 675.5,612C 681.346,613.147 683.013,616.48 680.5,622C 674.596,620.878 668.596,620.545 662.5,621C 658.928,623.626 658.595,626.626 661.5,630C 666.42,632.196 671.42,634.196 676.5,636C 683.138,640.017 685.304,645.85 683,653.5C 681.735,659.062 678.235,662.228 672.5,663C 666.5,663.667 660.5,663.667 654.5,663C 649.865,661.144 648.198,657.644 649.5,652.5C 654.374,653.967 659.374,654.967 664.5,655.5C 671.131,655.813 673.965,652.813 673,646.5C 672.5,646 672,645.5 671.5,645C 665.902,643.199 660.569,640.866 655.5,638C 646.432,627.48 647.765,618.647 659.5,611.5 Z"/></g>
<g><path style="opacity:1" fill="#0c0c0c" d="M 271.5,662.5 C 271.667,651.828 271.5,641.161 271,630.5C 270.283,631.044 269.783,631.711 269.5,632.5C 266.296,640.269 262.796,647.935 259,655.5C 255.558,657.733 251.892,658.067 248,656.5C 244.486,648.807 240.986,641.141 237.5,633.5C 237.539,632.244 237.039,631.244 236,630.5C 235.5,641.161 235.333,651.828 235.5,662.5C 232.435,663.818 229.269,663.818 226,662.5C 225.167,645.823 225.334,629.157 226.5,612.5C 231.197,610.677 235.364,611.343 239,614.5C 243.838,624.842 248.671,635.175 253.5,645.5C 258.826,634.535 264.16,623.535 269.5,612.5C 273.045,611.209 276.545,611.209 280,612.5C 280.667,629.167 280.667,645.833 280,662.5C 277.063,663.817 274.23,663.817 271.5,662.5 Z"/></g>
<g><path style="opacity:1" fill="#0e0e0e" d="M 288.5,611.5 C 291.777,611.216 294.943,611.549 298,612.5C 302.333,619.833 306.667,627.167 311,634.5C 315.561,627.21 319.728,619.71 323.5,612C 327.033,611.097 330.367,611.43 333.5,613C 328.033,623.147 322.533,633.313 317,643.5C 316.813,650.081 316.313,656.581 315.5,663C 312.24,663.784 309.073,663.617 306,662.5C 305.667,656.5 305.333,650.5 305,644.5C 301.253,637.337 297.253,630.337 293,623.5C 290.636,619.781 289.136,615.781 288.5,611.5 Z"/></g>
<g><path style="opacity:1" fill="#121212" d="M 413.5,620.5 C 409.167,620.5 404.833,620.5 400.5,620.5C 400.5,634.5 400.5,648.5 400.5,662.5C 397.635,663.783 394.635,663.783 391.5,662.5C 390.501,648.516 390.167,634.516 390.5,620.5C 385.5,620.5 380.5,620.5 375.5,620.5C 375.223,617.552 375.556,614.719 376.5,612C 389.167,611.333 401.833,611.333 414.5,612C 415.116,613.4 415.449,614.9 415.5,616.5C 415.415,618.333 414.748,619.666 413.5,620.5 Z"/></g>
<g><path style="opacity:1" fill="#0c0c0c" d="M 452.5,640.5 C 446.066,641.13 439.733,641.797 433.5,642.5C 433.5,646.5 433.5,650.5 433.5,654.5C 441.087,654.186 448.587,654.519 456,655.5C 456.769,658.099 456.602,660.599 455.5,663C 444.923,663.819 434.423,663.652 424,662.5C 423.333,645.833 423.333,629.167 424,612.5C 434.752,611.513 445.585,611.18 456.5,611.5C 456.5,614.5 456.5,617.5 456.5,620.5C 448.833,620.5 441.167,620.5 433.5,620.5C 433.5,624.833 433.5,629.167 433.5,633.5C 439.833,633.5 446.167,633.5 452.5,633.5C 452.5,635.833 452.5,638.167 452.5,640.5 Z"/></g>
<g><path style="opacity:1" fill="#0e0e0e" d="M 467.5,611.5 C 475.507,611.334 483.507,611.5 491.5,612C 504.704,616.404 508.204,624.904 502,637.5C 499.933,640.07 497.433,642.07 494.5,643.5C 498.333,649.167 502.167,654.833 506,660.5C 506.617,661.449 506.451,662.282 505.5,663C 502.167,663.667 498.833,663.667 495.5,663C 491.636,657.3 487.969,651.467 484.5,645.5C 482.257,644.526 479.924,644.192 477.5,644.5C 477.666,650.509 477.499,656.509 477,662.5C 473.667,663.833 470.333,663.833 467,662.5C 466.182,645.426 466.349,628.426 467.5,611.5 Z"/></g>
<g><path style="opacity:1" fill="#161616" d="M 516.5,611.5 C 519.777,611.216 522.943,611.549 526,612.5C 526.825,629.407 526.658,646.241 525.5,663C 522.24,663.784 519.073,663.617 516,662.5C 515.182,645.426 515.349,628.426 516.5,611.5 Z"/></g>
<g><path style="opacity:1" fill="#090909" d="M 598.5,611.5 C 601.448,611.223 604.281,611.556 607,612.5C 607.333,623.833 607.667,635.167 608,646.5C 610.905,654.534 616.405,657.034 624.5,654C 626.81,652.363 628.31,650.196 629,647.5C 629.333,635.833 629.667,624.167 630,612.5C 633,611.167 636,611.167 639,612.5C 639.667,624.833 639.667,637.167 639,649.5C 637.193,656.64 632.693,661.14 625.5,663C 620.167,663.667 614.833,663.667 609.5,663C 603.06,660.227 599.226,655.394 598,648.5C 597.188,636.091 597.355,623.758 598.5,611.5 Z"/></g>
<g><path style="opacity:1" fill="#f6f6f6" d="M 556.5,620.5 C 566.464,618.563 573.297,622.229 577,631.5C 579.39,642.552 575.557,650.385 565.5,655C 557.45,655.892 551.617,652.725 548,645.5C 544.098,634.678 546.932,626.345 556.5,620.5 Z"/></g>
<g><path style="opacity:1" fill="#f1f1f1" d="M 477.5,620.5 C 481.514,620.334 485.514,620.501 489.5,621C 495.334,624.668 496,629.168 491.5,634.5C 487.036,636.302 482.37,636.968 477.5,636.5C 477.5,631.167 477.5,625.833 477.5,620.5 Z"/></g>
<g><path style="opacity:1" fill="#6b6b6b" d="M 413.5,620.5 C 409.702,621.483 405.702,621.817 401.5,621.5C 401.829,635.344 401.496,649.01 400.5,662.5C 400.5,648.5 400.5,634.5 400.5,620.5C 404.833,620.5 409.167,620.5 413.5,620.5 Z"/></g>
<g><path style="opacity:1" fill="#8f8f8f" d="M 452.5,640.5 C 446.588,642.456 440.255,643.123 433.5,642.5C 439.733,641.797 446.066,641.13 452.5,640.5 Z"/></g>
<g><path style="opacity:1" fill="#9a9a9a" d="M 271.5,662.5 C 270.833,652.5 270.167,642.5 269.5,632.5C 269.783,631.711 270.283,631.044 271,630.5C 271.5,641.161 271.667,651.828 271.5,662.5 Z"/></g>
<g><path style="opacity:1" fill="#959595" d="M 237.5,633.5 C 236.833,643.167 236.167,652.833 235.5,662.5C 235.333,651.828 235.5,641.161 236,630.5C 237.039,631.244 237.539,632.244 237.5,633.5 Z"/></g>
<g><path style="opacity:1" fill="#0c0c0c" d="M 430.5,680.5 C 435.511,680.334 440.511,680.501 445.5,681C 451.764,682.294 453.098,685.627 449.5,691C 446.032,691.042 442.532,690.875 439,690.5C 430.143,690.189 425.643,694.522 425.5,703.5C 425.9,712.567 430.567,717.234 439.5,717.5C 443.188,717.053 446.854,716.886 450.5,717C 451.602,719.401 451.769,721.901 451,724.5C 450.25,725.126 449.416,725.626 448.5,726C 422.975,731.472 411.808,721.305 415,695.5C 418.106,688.225 423.272,683.225 430.5,680.5 Z"/></g>
<g><path style="opacity:1" fill="#0b0b0b" d="M 594.5,680.5 C 599.511,680.334 604.511,680.501 609.5,681C 617.61,681.318 619.61,684.985 615.5,692C 609.611,690.77 603.611,690.436 597.5,691C 587.172,699.149 586.839,707.816 596.5,717C 600.039,718.504 603.705,718.837 607.5,718C 609.661,713.552 608.328,711.385 603.5,711.5C 603.216,708.223 603.549,705.057 604.5,702C 608.833,701.333 613.167,701.333 617.5,702C 618,702.5 618.5,703 619,703.5C 619.831,710.192 619.664,716.858 618.5,723.5C 616.333,724.948 614,726.115 611.5,727C 597.579,730.943 587.079,726.776 580,714.5C 574.866,698.697 579.699,687.364 594.5,680.5 Z"/></g>
<g><path style="opacity:1" fill="#0b0b0b" d="M 294.5,726.5 C 294.5,714.167 294.5,701.833 294.5,689.5C 290.5,689.5 286.5,689.5 282.5,689.5C 281.214,686.665 281.214,683.832 282.5,681C 293.833,680.333 305.167,680.333 316.5,681C 319.167,683.667 319.167,686.333 316.5,689C 312.974,690.337 309.308,690.837 305.5,690.5C 305.667,702.505 305.5,714.505 305,726.5C 301.501,727.797 298.001,727.797 294.5,726.5 Z"/></g>
<g><path style="opacity:1" fill="#0a0a0a" d="M 325.5,680.5 C 334.226,680.161 342.893,680.661 351.5,682C 360.844,687.251 363.011,694.751 358,704.5C 356.316,706.351 354.483,708.018 352.5,709.5C 355.532,714.035 358.365,718.702 361,723.5C 361.684,724.784 361.517,725.951 360.5,727C 357.167,727.667 353.833,727.667 350.5,727C 347.271,722.767 344.438,718.267 342,713.5C 340.556,711.845 338.722,711.178 336.5,711.5C 336.666,716.511 336.499,721.511 336,726.5C 332.606,727.456 329.106,727.789 325.5,727.5C 325.5,711.833 325.5,696.167 325.5,680.5 Z"/></g>
<g><path style="opacity:1" fill="#0b0b0b" d="M 381.5,680.5 C 385.884,680.174 390.217,680.508 394.5,681.5C 400.322,695.797 405.655,710.297 410.5,725C 410.355,725.772 410.022,726.439 409.5,727C 406.167,727.667 402.833,727.667 399.5,727C 397.972,724.083 396.639,721.083 395.5,718C 390.5,717.333 385.5,717.333 380.5,718C 379.407,720.443 378.407,722.943 377.5,725.5C 376.975,726.192 376.308,726.692 375.5,727C 372.518,727.498 369.518,727.665 366.5,727.5C 370.096,711.379 375.096,695.713 381.5,680.5 Z"/></g>
<g><path style="opacity:1" fill="#0a0a0a" d="M 461.5,680.5 C 464.777,680.216 467.943,680.549 471,681.5C 471.333,687.5 471.667,693.5 472,699.5C 476.833,693.333 481.667,687.167 486.5,681C 490.091,680.211 493.591,680.378 497,681.5C 497.667,682.5 497.667,683.5 497,684.5C 492.214,689.91 488.048,695.744 484.5,702C 489.564,709.403 494.23,717.07 498.5,725C 498.355,725.772 498.022,726.439 497.5,727C 493.789,727.825 490.122,727.659 486.5,726.5C 483.314,720.782 479.648,715.448 475.5,710.5C 474.52,711.981 473.353,713.315 472,714.5C 471.667,718.5 471.333,722.5 471,726.5C 467.667,727.833 464.333,727.833 461,726.5C 460.184,711.092 460.351,695.759 461.5,680.5 Z"/></g>
<g><path style="opacity:1" fill="#070707" d="M 506.5,680.5 C 509.777,680.216 512.943,680.549 516,681.5C 516.824,696.741 516.657,711.908 515.5,727C 512.24,727.784 509.073,727.617 506,726.5C 505.184,711.092 505.351,695.759 506.5,680.5 Z"/></g>
<g><path style="opacity:1" fill="#0c0c0c" d="M 556.5,706.5 C 556.56,707.043 556.893,707.376 557.5,707.5C 558.498,698.859 558.831,690.192 558.5,681.5C 561.899,680.18 565.399,680.18 569,681.5C 569.667,696.5 569.667,711.5 569,726.5C 565.545,727.791 562.045,727.791 558.5,726.5C 552.579,717.657 546.412,708.991 540,700.5C 539.667,709.167 539.333,717.833 539,726.5C 535.606,727.456 532.106,727.789 528.5,727.5C 528.176,711.922 528.509,696.422 529.5,681C 532.5,680.333 535.5,680.333 538.5,681C 544.331,689.657 550.331,698.157 556.5,706.5 Z"/></g>
<g><path style="opacity:1" fill="#f5f5f5" d="M 336.5,689.5 C 339.978,689.184 343.312,689.684 346.5,691C 349.167,694.333 349.167,697.667 346.5,701C 343.312,702.316 339.978,702.816 336.5,702.5C 336.5,698.167 336.5,693.833 336.5,689.5 Z"/></g>
<g><path style="opacity:1" fill="#e5e5e5" d="M 386.5,694.5 C 387.75,694.577 388.583,695.244 389,696.5C 390.684,700.716 391.851,705.049 392.5,709.5C 389.5,709.5 386.5,709.5 383.5,709.5C 384.343,704.462 385.343,699.462 386.5,694.5 Z"/></g>
<g><path style="opacity:1" fill="#a4a4a4" d="M 282.5,689.5 C 286.5,689.5 290.5,689.5 294.5,689.5C 294.5,701.833 294.5,714.167 294.5,726.5C 293.505,714.678 293.172,702.678 293.5,690.5C 289.629,690.815 285.962,690.482 282.5,689.5 Z"/></g>
<g><path style="opacity:1" fill="#535353" d="M 558.5,681.5 C 558.831,690.192 558.498,698.859 557.5,707.5C 556.893,707.376 556.56,707.043 556.5,706.5C 557.167,698.167 557.833,689.833 558.5,681.5 Z"/></g>
</svg>
