<?xml version="1.0" encoding="UTF-8"?>
<!DOCTYPE svg PUBLIC "-//W3C//DTD SVG 1.1//EN" "http://www.w3.org/Graphics/SVG/1.1/DTD/svg11.dtd">
<svg xmlns="http://www.w3.org/2000/svg" version="1.1" width="1024px" height="1024px" style="shape-rendering:geometricPrecision; text-rendering:geometricPrecision; image-rendering:optimizeQuality; fill-rule:evenodd; clip-rule:evenodd" xmlns:xlink="http://www.w3.org/1999/xlink">
<g><path style="opacity:1" fill="#010101" d="M -0.5,-0.5 C 340.833,-0.5 682.167,-0.5 1023.5,-0.5C 1023.5,340.833 1023.5,682.167 1023.5,1023.5C 682.167,1023.5 340.833,1023.5 -0.5,1023.5C -0.5,682.167 -0.5,340.833 -0.5,-0.5 Z"/></g>
<g><path style="opacity:1" fill="#f8f8f8" d="M 561.5,244.5 C 579.439,244.029 590.606,252.362 595,269.5C 603.344,259.762 613.177,257.928 624.5,264C 633.164,270.032 635.83,278.032 632.5,288C 588.168,288.5 543.835,288.667 499.5,288.5C 498.479,268.688 507.812,259.521 527.5,261C 531.792,262.396 535.292,264.896 538,268.5C 541.358,255.977 549.191,247.977 561.5,244.5 Z"/></g>
<g><path style="opacity:1" fill="#f8f8f8" d="M 412.5,277.5 C 424.838,277.333 437.171,277.5 449.5,278C 452.735,279.36 455.235,281.527 457,284.5C 457.828,289.202 457.662,293.869 456.5,298.5C 448.064,302.43 439.73,306.597 431.5,311C 408,316.833 399.167,308 405,284.5C 406.742,281.254 409.242,278.921 412.5,277.5 Z"/></g>
<g><path style="opacity:1" fill="#fbfbfb" d="M 428.5,523.5 C 427.501,465.002 427.168,406.336 427.5,347.5C 431.517,344.168 435.85,341.168 440.5,338.5C 441.185,332.279 441.852,326.112 442.5,320C 447.246,317.027 452.246,314.527 457.5,312.5C 458.493,317.12 458.827,321.786 458.5,326.5C 463.691,325.238 468.358,322.904 472.5,319.5C 473.499,334.485 473.833,349.485 473.5,364.5C 477.686,363.771 481.686,362.438 485.5,360.5C 486.333,345.178 486.833,329.844 487,314.5C 492.785,311.69 498.618,309.024 504.5,306.5C 504.5,312.833 504.5,319.167 504.5,325.5C 509.363,325.819 514.03,325.486 518.5,324.5C 519.167,318.833 519.833,313.167 520.5,307.5C 525.383,309.774 530.383,311.774 535.5,313.5C 536.152,329.265 536.819,344.931 537.5,360.5C 541.444,362.964 545.777,364.63 550.5,365.5C 550.167,350.485 550.501,335.485 551.5,320.5C 555.674,323.088 560.007,325.421 564.5,327.5C 565.167,319.5 565.833,311.5 566.5,303.5C 571.749,306.374 576.915,309.374 582,312.5C 582.168,321.518 582.668,330.518 583.5,339.5C 587.801,341.969 591.967,344.636 596,347.5C 596.667,363.5 596.667,379.5 596,395.5C 587.667,407.5 579.333,419.5 571,431.5C 570.282,432.451 569.449,432.617 568.5,432C 556.853,422.843 544.853,414.177 532.5,406C 521.817,401.98 510.817,400.647 499.5,402C 487.362,407.157 476.862,414.657 468,424.5C 462.378,431.209 462.045,438.209 467,445.5C 470.581,449.752 474.748,453.252 479.5,456C 493.403,460.745 507.07,466.079 520.5,472C 528.06,479.679 526.727,485.679 516.5,490C 486.653,499.892 457.32,511.059 428.5,523.5 Z"/></g>
<g><path style="opacity:1" fill="#fafafa" d="M 664.5,332.5 C 654.895,333.808 645.061,334.475 635,334.5C 625.327,334.5 615.827,334.166 606.5,333.5C 605.649,321.185 611.315,316.018 623.5,318C 626.562,319.061 629.062,320.894 631,323.5C 634.844,309.828 643.344,305.661 656.5,311C 664.353,316.211 667.02,323.378 664.5,332.5 Z"/></g>
<g><path style="opacity:1" fill="#737373" d="M 504.5,306.5 C 505.49,312.31 505.823,318.31 505.5,324.5C 509.833,324.5 514.167,324.5 518.5,324.5C 514.03,325.486 509.363,325.819 504.5,325.5C 504.5,319.167 504.5,312.833 504.5,306.5 Z"/></g>
<g><path style="opacity:1" fill="#828282" d="M 520.5,307.5 C 519.833,313.167 519.167,318.833 518.5,324.5C 518.171,318.463 518.504,312.463 519.5,306.5C 520.107,306.624 520.44,306.957 520.5,307.5 Z"/></g>
<g><path style="opacity:1" fill="#545454" d="M 664.5,332.5 C 664.5,333.5 664.5,334.5 664.5,335.5C 644.822,335.833 625.155,335.5 605.5,334.5C 605.624,333.893 605.957,333.56 606.5,333.5C 615.827,334.166 625.327,334.5 635,334.5C 645.061,334.475 654.895,333.808 664.5,332.5 Z"/></g>
<g><path style="opacity:1" fill="#afafaf" d="M 535.5,313.5 C 537.484,328.798 538.151,344.464 537.5,360.5C 536.819,344.931 536.152,329.265 535.5,313.5 Z"/></g>
<g><path style="opacity:1" fill="#f8f8f8" d="M 382.5,413.5 C 383.043,413.44 383.376,413.107 383.5,412.5C 379.217,411.508 374.884,411.174 370.5,411.5C 367.246,410.327 366.08,407.994 367,404.5C 373.889,382.942 381.389,361.608 389.5,340.5C 396.96,361.379 404.126,382.379 411,403.5C 411.986,406.742 411.152,409.408 408.5,411.5C 403.518,412.119 398.518,412.786 393.5,413.5C 400.608,433.601 406.941,453.934 412.5,474.5C 412.665,477.006 411.665,478.839 409.5,480C 403.167,480.333 396.833,480.667 390.5,481C 398.841,498.866 403.175,517.7 403.5,537.5C 375.167,537.5 346.833,537.5 318.5,537.5C 316.21,522.573 321.877,512.073 335.5,506C 336.833,505.333 338.167,505.333 339.5,506C 348.484,524.056 362.484,529.223 381.5,521.5C 383.037,507.815 384.704,494.149 386.5,480.5C 379.825,480.666 373.158,480.5 366.5,480C 364.406,478.745 363.406,476.912 363.5,474.5C 369.679,454.119 376.012,433.786 382.5,413.5 Z"/></g>
<g><path style="opacity:1" fill="#060606" d="M 454.5,352.5 C 455.491,359.313 455.825,366.313 455.5,373.5C 452.202,375.485 448.869,377.485 445.5,379.5C 444.509,373.021 444.176,366.354 444.5,359.5C 447.833,357.167 451.167,354.833 454.5,352.5 Z"/></g>
<g><path style="opacity:1" fill="#080808" d="M 578.5,360.5 C 578.823,367.022 578.49,373.355 577.5,379.5C 574.281,377.973 571.115,376.307 568,374.5C 567.169,367.476 567.336,360.476 568.5,353.5C 571.9,355.856 575.233,358.189 578.5,360.5 Z"/></g>
<g><path style="opacity:1" fill="#595959" d="M 454.5,352.5 C 454.56,351.957 454.893,351.624 455.5,351.5C 456.819,358.99 456.819,366.323 455.5,373.5C 455.825,366.313 455.491,359.313 454.5,352.5 Z"/></g>
<g><path style="opacity:1" fill="#f9f9f9" d="M 641.5,384.5 C 631.833,384.5 622.167,384.5 612.5,384.5C 612.5,382.167 612.5,379.833 612.5,377.5C 617.492,367.247 625.158,364.747 635.5,370C 640.123,373.746 642.123,378.579 641.5,384.5 Z"/></g>
<g><path style="opacity:1" fill="#a1a1a1" d="M 444.5,359.5 C 444.176,366.354 444.509,373.021 445.5,379.5C 445.44,380.043 445.107,380.376 444.5,380.5C 443.181,373.344 443.181,366.344 444.5,359.5 Z"/></g>
<g><path style="opacity:1" fill="#7b7b7b" d="M 578.5,360.5 C 579.818,367.011 579.818,373.678 578.5,380.5C 577.893,380.376 577.56,380.043 577.5,379.5C 578.49,373.355 578.823,367.022 578.5,360.5 Z"/></g>
<g><path style="opacity:1" fill="#a1a1a1" d="M 612.5,377.5 C 612.5,379.833 612.5,382.167 612.5,384.5C 622.167,384.5 631.833,384.5 641.5,384.5C 631.681,385.494 621.681,385.827 611.5,385.5C 611.194,382.615 611.527,379.948 612.5,377.5 Z"/></g>
<g><path style="opacity:1" fill="#fbfbfb" d="M 607.5,403.5 C 627.643,402.26 644.143,409.26 657,424.5C 665.1,438.478 667.766,453.478 665,469.5C 661.151,499.553 649.984,526.553 631.5,550.5C 621.308,543.797 614.808,534.464 612,522.5C 611.588,512.164 611.754,501.831 612.5,491.5C 613.249,480.247 610.082,470.247 603,461.5C 596.259,454.254 589.092,447.588 581.5,441.5C 590.583,429.09 599.25,416.423 607.5,403.5 Z"/></g>
<g><path style="opacity:1" fill="#787878" d="M 370.5,411.5 C 374.884,411.174 379.217,411.508 383.5,412.5C 383.376,413.107 383.043,413.44 382.5,413.5C 378.5,412.833 374.5,412.167 370.5,411.5 Z"/></g>
<g><path style="opacity:1" fill="#fafafa" d="M 502.5,414.5 C 511.852,414.604 520.852,416.437 529.5,420C 550.873,435.7 571.373,452.533 591,470.5C 594.673,474.847 597.006,479.847 598,485.5C 597.836,495.498 597.336,505.498 596.5,515.5C 596.487,529.475 600.987,541.809 610,552.5C 623.779,566.955 639.279,579.122 656.5,589C 674.476,598.155 692.81,606.489 711.5,614C 712.337,615.011 712.67,616.178 712.5,617.5C 644.163,617.833 575.83,617.5 507.5,616.5C 499.866,585.238 507.866,558.738 531.5,537C 545.891,527.275 559.058,516.109 571,503.5C 579.583,491.472 578.083,480.972 566.5,472C 543.902,462.931 520.902,454.931 497.5,448C 490.851,446.26 485.017,443.093 480,438.5C 479.245,435.697 479.578,433.03 481,430.5C 487.786,424.533 494.952,419.199 502.5,414.5 Z"/></g>
<g><path style="opacity:1" fill="#fafafa" d="M 545.5,470.5 C 550.386,473.205 554.886,476.539 559,480.5C 562.232,485.468 562.232,490.468 559,495.5C 555.535,499.967 551.702,504.133 547.5,508C 533.213,518.619 519.213,529.619 505.5,541C 490.632,555.208 479.799,572.042 473,591.5C 470.847,600.029 469.68,608.696 469.5,617.5C 419.5,617.5 369.5,617.5 319.5,617.5C 319.33,616.178 319.663,615.011 320.5,614C 380.228,566.96 446.561,531.627 519.5,508C 529.729,504.641 538.562,499.141 546,491.5C 549.43,484.357 549.263,477.357 545.5,470.5 Z"/></g>
<g><path style="opacity:1" fill="#b5b5b5" d="M 427.5,347.5 C 427.168,406.336 427.501,465.002 428.5,523.5C 428.44,524.043 428.107,524.376 427.5,524.5C 426.169,465.335 426.169,406.335 427.5,347.5 Z"/></g>
<g><path style="opacity:1" fill="#f4f4f5" d="M 405.5,658.5 C 411.925,658.13 418.258,658.63 424.5,660C 425.416,660.374 426.25,660.874 427,661.5C 427.497,664.146 427.664,666.813 427.5,669.5C 421.224,668.18 414.891,667.68 408.5,668C 405.022,670.706 404.689,673.706 407.5,677C 411.54,679.427 415.874,681.094 420.5,682C 429.419,686.759 431.919,693.926 428,703.5C 424.92,707.631 420.753,710.131 415.5,711C 408.488,712.278 401.988,711.111 396,707.5C 395.503,704.854 395.336,702.187 395.5,699.5C 400.374,700.967 405.374,701.967 410.5,702.5C 413.861,702.888 416.694,701.888 419,699.5C 419.758,697.231 419.591,695.064 418.5,693C 412.046,690.273 405.712,687.273 399.5,684C 392.546,673.243 394.546,664.743 405.5,658.5 Z"/></g>
<g><path style="opacity:1" fill="#f4f4f4" d="M 611.5,658.5 C 638.448,656.616 649.281,668.95 644,695.5C 637.059,708.547 626.225,713.38 611.5,710C 599.573,705.876 593.573,697.376 593.5,684.5C 594.507,672.192 600.507,663.526 611.5,658.5 Z"/></g>
<g><path style="opacity:1" fill="#f4f4f4" d="M 717.5,658.5 C 722.844,658.334 728.177,658.501 733.5,659C 739.346,660.147 741.013,663.48 738.5,669C 732.596,667.878 726.596,667.545 720.5,668C 716.928,670.626 716.595,673.626 719.5,677C 725.167,679.333 730.833,681.667 736.5,684C 737.667,685.167 738.833,686.333 740,687.5C 744.694,703.43 738.694,711.43 722,711.5C 717.187,711.505 712.687,710.339 708.5,708C 707.556,705.281 707.223,702.448 707.5,699.5C 712.247,700.187 716.914,701.187 721.5,702.5C 725.36,702.608 728.526,701.275 731,698.5C 731.896,695.975 731.396,693.808 729.5,692C 724.42,690.196 719.42,688.196 714.5,686C 708.23,681.291 706.064,675.124 708,667.5C 710.406,663.592 713.572,660.592 717.5,658.5 Z"/></g>
<g><path style="opacity:1" fill="#f5f5f5" d="M 329.5,709.5 C 329.667,698.828 329.5,688.161 329,677.5C 328.283,678.044 327.783,678.711 327.5,679.5C 324.393,687.717 320.726,695.717 316.5,703.5C 312.955,704.791 309.455,704.791 306,703.5C 302.486,695.807 298.986,688.141 295.5,680.5C 295.217,679.711 294.717,679.044 294,678.5C 293.5,688.828 293.334,699.161 293.5,709.5C 290.435,710.818 287.269,710.818 284,709.5C 283.333,692.833 283.333,676.167 284,659.5C 288,658.167 292,658.167 296,659.5C 300.91,670.32 306.077,680.986 311.5,691.5C 316.801,680.899 322.134,670.232 327.5,659.5C 331.045,658.209 334.545,658.209 338,659.5C 338.5,676.497 338.667,693.497 338.5,710.5C 335.287,710.81 332.287,710.477 329.5,709.5 Z"/></g>
<g><path style="opacity:1" fill="#f2f2f2" d="M 346.5,658.5 C 349.518,658.335 352.518,658.502 355.5,659C 356,659.5 356.5,660 357,660.5C 360.747,667.663 364.747,674.663 369,681.5C 373.04,673.919 377.207,666.419 381.5,659C 384.5,658.333 387.5,658.333 390.5,659C 390.957,659.414 391.291,659.914 391.5,660.5C 386.254,670.661 380.754,680.661 375,690.5C 374.667,696.833 374.333,703.167 374,709.5C 370.606,710.456 367.106,710.789 363.5,710.5C 363.666,704.158 363.5,697.825 363,691.5C 359.253,684.337 355.253,677.337 351,670.5C 348.636,666.781 347.136,662.781 346.5,658.5 Z"/></g>
<g><path style="opacity:1" fill="#e8e8e8" d="M 434.5,658.5 C 447.171,658.333 459.838,658.5 472.5,659C 473.783,661.795 473.783,664.628 472.5,667.5C 468.235,668.439 463.902,668.772 459.5,668.5C 459.667,682.171 459.5,695.837 459,709.5C 455.667,710.833 452.333,710.833 449,709.5C 448.5,695.837 448.333,682.171 448.5,668.5C 443.767,668.777 439.1,668.443 434.5,667.5C 433.259,664.463 433.259,661.463 434.5,658.5 Z"/></g>
<g><path style="opacity:1" fill="#f3f3f3" d="M 513.5,667.5 C 506.167,667.5 498.833,667.5 491.5,667.5C 491.5,671.833 491.5,676.167 491.5,680.5C 497.5,680.5 503.5,680.5 509.5,680.5C 510.473,682.948 510.806,685.615 510.5,688.5C 504.167,688.5 497.833,688.5 491.5,688.5C 491.5,692.833 491.5,697.167 491.5,701.5C 499.609,700.886 507.442,701.553 515,703.5C 515.918,706.063 515.418,708.23 513.5,710C 502.923,710.819 492.423,710.652 482,709.5C 481.333,692.833 481.333,676.167 482,659.5C 492.757,658.347 503.59,658.18 514.5,659C 515.116,660.4 515.449,661.9 515.5,663.5C 515.415,665.333 514.748,666.666 513.5,667.5 Z"/></g>
<g><path style="opacity:1" fill="#f3f3f3" d="M 525.5,658.5 C 533.507,658.334 541.507,658.5 549.5,659C 562.704,663.404 566.204,671.904 560,684.5C 557.933,687.07 555.433,689.07 552.5,690.5C 556.5,696.5 560.5,702.5 564.5,708.5C 564.291,709.086 563.957,709.586 563.5,710C 560.167,710.667 556.833,710.667 553.5,710C 549.252,704.172 545.252,698.172 541.5,692C 539.527,691.505 537.527,691.338 535.5,691.5C 535.666,697.509 535.499,703.509 535,709.5C 531.667,710.833 528.333,710.833 525,709.5C 524.182,692.426 524.349,675.426 525.5,658.5 Z"/></g>
<g><path style="opacity:1" fill="#ececec" d="M 574.5,658.5 C 577.777,658.216 580.943,658.549 584,659.5C 584.825,676.407 584.658,693.241 583.5,710C 580.24,710.784 577.073,710.617 574,709.5C 573.182,692.426 573.349,675.426 574.5,658.5 Z"/></g>
<g><path style="opacity:1" fill="#f5f5f5" d="M 656.5,658.5 C 659.448,658.223 662.281,658.556 665,659.5C 665.333,670.833 665.667,682.167 666,693.5C 667.047,699.38 670.547,702.046 676.5,701.5C 681.429,701.953 684.929,699.953 687,695.5C 687.333,683.5 687.667,671.5 688,659.5C 691,658.167 694,658.167 697,659.5C 697.667,671.833 697.667,684.167 697,696.5C 694.043,706.604 687.21,711.604 676.5,711.5C 666.221,711.628 659.387,706.961 656,697.5C 655.187,684.425 655.354,671.425 656.5,658.5 Z"/></g>
<g><path style="opacity:1" fill="#5e5e5e" d="M 513.5,667.5 C 506.687,668.491 499.687,668.825 492.5,668.5C 492.5,672.167 492.5,675.833 492.5,679.5C 498.358,679.178 504.025,679.511 509.5,680.5C 503.5,680.5 497.5,680.5 491.5,680.5C 491.5,676.167 491.5,671.833 491.5,667.5C 498.833,667.5 506.167,667.5 513.5,667.5 Z"/></g>
<g><path style="opacity:1" fill="#070707" d="M 614.5,667.5 C 629.845,666.189 636.678,673.189 635,688.5C 632.271,699.207 625.438,703.373 614.5,701C 607.551,697.39 604.217,691.556 604.5,683.5C 605.03,676.325 608.363,670.991 614.5,667.5 Z"/></g>
<g><path style="opacity:1" fill="#0f0f0f" d="M 535.5,667.5 C 541.061,666.802 546.227,667.802 551,670.5C 553.367,674.999 552.533,678.832 548.5,682C 544.3,683.367 539.967,683.867 535.5,683.5C 535.5,678.167 535.5,672.833 535.5,667.5 Z"/></g>
<g><path style="opacity:1" fill="#646464" d="M 329.5,709.5 C 328.833,699.5 328.167,689.5 327.5,679.5C 327.783,678.711 328.283,678.044 329,677.5C 329.5,688.161 329.667,698.828 329.5,709.5 Z"/></g>
<g><path style="opacity:1" fill="#696969" d="M 295.5,680.5 C 294.833,690.167 294.167,699.833 293.5,709.5C 293.334,699.161 293.5,688.828 294,678.5C 294.717,679.044 295.217,679.711 295.5,680.5 Z"/></g>
<g><path style="opacity:1" fill="#f3f3f3" d="M 489.5,727.5 C 495.593,727.139 501.593,727.639 507.5,729C 511.327,731.905 511.327,734.905 507.5,738C 501.853,737.7 496.186,737.7 490.5,738C 481.565,745.868 481.231,754.202 489.5,763C 495.989,764.299 502.489,764.799 509,764.5C 510.716,769.339 509.216,772.506 504.5,774C 481.748,777.909 470.915,768.409 472,745.5C 474.719,736.283 480.552,730.283 489.5,727.5 Z"/></g>
<g><path style="opacity:1" fill="#f5f5f5" d="M 652.5,727.5 C 658.176,727.334 663.843,727.501 669.5,728C 675.85,729.666 677.183,733.333 673.5,739C 667.611,737.77 661.611,737.436 655.5,738C 648.764,741.976 646.264,747.809 648,755.5C 651.363,764.265 657.53,767.265 666.5,764.5C 667.575,760.062 665.908,758.062 661.5,758.5C 661.216,755.223 661.549,752.057 662.5,749C 666.833,748.333 671.167,748.333 675.5,749C 676,749.5 676.5,750 677,750.5C 677.831,757.192 677.664,763.858 676.5,770.5C 671.528,773.784 666.028,775.118 660,774.5C 648.636,775.131 640.969,770.131 637,759.5C 633.416,744.339 638.582,733.672 652.5,727.5 Z"/></g>
<g><path style="opacity:1" fill="#f5f5f5" d="M 352.5,772.5 C 352.5,760.5 352.5,748.5 352.5,736.5C 348.5,736.5 344.5,736.5 340.5,736.5C 339.214,733.665 339.214,730.832 340.5,728C 352.167,727.333 363.833,727.333 375.5,728C 376.919,731.163 376.585,734.163 374.5,737C 370.848,737.499 367.182,737.665 363.5,737.5C 363.667,749.505 363.5,761.505 363,773.5C 359.927,774.617 356.76,774.784 353.5,774C 352.944,773.617 352.611,773.117 352.5,772.5 Z"/></g>
<g><path style="opacity:1" fill="#f2f1f2" d="M 383.5,727.5 C 391.507,727.334 399.507,727.5 407.5,728C 418.646,732.797 421.479,740.63 416,751.5C 414.316,753.351 412.483,755.018 410.5,756.5C 413.585,761 416.418,765.667 419,770.5C 419.684,771.784 419.517,772.951 418.5,774C 414.789,774.825 411.122,774.659 407.5,773.5C 404.8,769.296 402.3,764.963 400,760.5C 398.556,758.845 396.722,758.178 394.5,758.5C 394.666,763.511 394.499,768.511 394,773.5C 390.333,774.833 386.667,774.833 383,773.5C 382.198,758.122 382.365,742.789 383.5,727.5 Z"/></g>
<g><path style="opacity:1" fill="#f4f4f4" d="M 439.5,727.5 C 444.099,727.2 448.599,727.533 453,728.5C 458.364,742.924 463.53,757.424 468.5,772C 468.355,772.772 468.022,773.439 467.5,774C 464.167,774.667 460.833,774.667 457.5,774C 455.972,771.083 454.639,768.083 453.5,765C 448.5,764.333 443.5,764.333 438.5,765C 437.865,768.606 436.198,771.606 433.5,774C 430.518,774.498 427.518,774.665 424.5,774.5C 428.092,758.39 433.092,742.723 439.5,727.5 Z"/></g>
<g><path style="opacity:1" fill="#f6f6f6" d="M 529.5,731.5 C 529.334,736.511 529.501,741.511 530,746.5C 530.717,745.956 531.217,745.289 531.5,744.5C 535.934,739.16 540.268,733.66 544.5,728C 547.833,727.333 551.167,727.333 554.5,728C 555.022,728.561 555.355,729.228 555.5,730C 550.803,735.887 546.47,742.054 542.5,748.5C 547.382,756.213 552.048,764.046 556.5,772C 556.355,772.772 556.022,773.439 555.5,774C 551.577,774.793 547.744,774.626 544,773.5C 540.735,767.959 537.235,762.626 533.5,757.5C 532.52,758.981 531.353,760.315 530,761.5C 529.667,765.5 529.333,769.5 529,773.5C 525.667,774.833 522.333,774.833 519,773.5C 518.333,758.5 518.333,743.5 519,728.5C 522.073,727.383 525.24,727.216 528.5,728C 529.337,729.011 529.67,730.178 529.5,731.5 Z"/></g>
<g><path style="opacity:1" fill="#efefef" d="M 564.5,727.5 C 567.777,727.216 570.943,727.549 574,728.5C 574.824,743.741 574.657,758.908 573.5,774C 570.106,774.752 566.773,774.585 563.5,773.5C 562.334,758.845 562.167,744.178 563,729.5C 563.717,728.956 564.217,728.289 564.5,727.5 Z"/></g>
<g><path style="opacity:1" fill="#f5f5f5" d="M 614.5,753.5 C 614.56,754.043 614.893,754.376 615.5,754.5C 616.498,745.859 616.831,737.192 616.5,728.5C 619.899,727.18 623.399,727.18 627,728.5C 627.667,743.5 627.667,758.5 627,773.5C 623.591,774.622 620.091,774.789 616.5,774C 610.333,765.167 604.167,756.333 598,747.5C 597.667,756.167 597.333,764.833 597,773.5C 593.606,774.456 590.106,774.789 586.5,774.5C 586.176,758.922 586.509,743.422 587.5,728C 590.5,727.333 593.5,727.333 596.5,728C 602.331,736.657 608.331,745.157 614.5,753.5 Z"/></g>
<g><path style="opacity:1" fill="#ababab" d="M 616.5,728.5 C 616.831,737.192 616.498,745.859 615.5,754.5C 614.893,754.376 614.56,754.043 614.5,753.5C 615.167,745.167 615.833,736.833 616.5,728.5 Z"/></g>
<g><path style="opacity:1" fill="#0c0c0c" d="M 394.5,736.5 C 397.978,736.184 401.312,736.684 404.5,738C 407.167,741.333 407.167,744.667 404.5,748C 401.312,749.316 397.978,749.816 394.5,749.5C 394.5,745.167 394.5,740.833 394.5,736.5 Z"/></g>
<g><path style="opacity:1" fill="#363636" d="M 529.5,731.5 C 530.167,735.833 530.833,740.167 531.5,744.5C 531.217,745.289 530.717,745.956 530,746.5C 529.501,741.511 529.334,736.511 529.5,731.5 Z"/></g>
<g><path style="opacity:1" fill="#181818" d="M 445.5,741.5 C 447.971,746.136 449.637,751.136 450.5,756.5C 447.5,756.5 444.5,756.5 441.5,756.5C 442.076,751.282 443.409,746.282 445.5,741.5 Z"/></g>
<g><path style="opacity:1" fill="#595959" d="M 340.5,736.5 C 344.5,736.5 348.5,736.5 352.5,736.5C 352.5,748.5 352.5,760.5 352.5,772.5C 351.505,761.012 351.172,749.345 351.5,737.5C 347.629,737.815 343.962,737.482 340.5,736.5 Z"/></g>
</svg>
